<mxfile host="app.diagrams.net" modified="2023-09-08T20:45:49.971Z" agent="Mozilla/5.0 (Macintosh; Intel Mac OS X 10_15_7) AppleWebKit/537.36 (KHTML, like Gecko) Chrome/116.0.0.0 Safari/537.36" etag="OCRcf1Z-N0t4BXVSJ05n" version="21.7.2" type="github" pages="2">
  <diagram name="full" id="5C2zm-8fkTOjbQyjAJXI">
    <mxGraphModel dx="1466" dy="979" grid="1" gridSize="10" guides="1" tooltips="1" connect="1" arrows="1" fold="1" page="1" pageScale="1" pageWidth="850" pageHeight="1100" math="0" shadow="0">
      <root>
        <mxCell id="0" />
        <mxCell id="1" parent="0" />
        <mxCell id="zbvgG5rFSshn16eEqJVB-1" value="" style="swimlane;html=1;childLayout=stackLayout;startSize=0;rounded=0;shadow=0;comic=0;labelBackgroundColor=none;strokeWidth=1;fontFamily=Verdana;fontSize=12;align=center;" parent="1" vertex="1">
          <mxGeometry x="40" y="20" width="750" height="1070" as="geometry" />
        </mxCell>
        <mxCell id="zbvgG5rFSshn16eEqJVB-82" style="edgeStyle=orthogonalEdgeStyle;rounded=0;orthogonalLoop=1;jettySize=auto;html=1;exitX=1;exitY=0.5;exitDx=0;exitDy=0;entryX=0;entryY=0.5;entryDx=0;entryDy=0;endArrow=open;endFill=0;" parent="zbvgG5rFSshn16eEqJVB-1" source="zbvgG5rFSshn16eEqJVB-71" target="zbvgG5rFSshn16eEqJVB-81" edge="1">
          <mxGeometry relative="1" as="geometry" />
        </mxCell>
        <mxCell id="zbvgG5rFSshn16eEqJVB-2" value="Tutor" style="swimlane;html=1;startSize=20;" parent="zbvgG5rFSshn16eEqJVB-1" vertex="1">
          <mxGeometry width="250" height="1070" as="geometry" />
        </mxCell>
        <mxCell id="zbvgG5rFSshn16eEqJVB-71" value="Start assessment" style="rounded=1;whiteSpace=wrap;html=1;shadow=0;comic=0;labelBackgroundColor=none;strokeWidth=1;fontFamily=Verdana;fontSize=12;align=center;arcSize=50;" parent="zbvgG5rFSshn16eEqJVB-2" vertex="1">
          <mxGeometry x="50" y="266" width="130" height="30" as="geometry" />
        </mxCell>
        <mxCell id="zbvgG5rFSshn16eEqJVB-112" style="edgeStyle=orthogonalEdgeStyle;rounded=0;orthogonalLoop=1;jettySize=auto;html=1;exitX=0.144;exitY=0.987;exitDx=0;exitDy=0;entryX=0.5;entryY=0;entryDx=0;entryDy=0;endArrow=open;endFill=0;exitPerimeter=0;" parent="zbvgG5rFSshn16eEqJVB-2" source="zbvgG5rFSshn16eEqJVB-107" target="zbvgG5rFSshn16eEqJVB-109" edge="1">
          <mxGeometry relative="1" as="geometry" />
        </mxCell>
        <mxCell id="zbvgG5rFSshn16eEqJVB-113" style="edgeStyle=orthogonalEdgeStyle;rounded=0;orthogonalLoop=1;jettySize=auto;html=1;exitX=0.884;exitY=1.008;exitDx=0;exitDy=0;entryX=0.5;entryY=0;entryDx=0;entryDy=0;exitPerimeter=0;endArrow=open;endFill=0;" parent="zbvgG5rFSshn16eEqJVB-2" source="zbvgG5rFSshn16eEqJVB-107" target="zbvgG5rFSshn16eEqJVB-110" edge="1">
          <mxGeometry relative="1" as="geometry" />
        </mxCell>
        <mxCell id="zbvgG5rFSshn16eEqJVB-107" value="" style="whiteSpace=wrap;html=1;rounded=0;shadow=0;comic=0;labelBackgroundColor=none;strokeWidth=1;fillColor=#000000;fontFamily=Verdana;fontSize=12;align=center;rotation=0;" parent="zbvgG5rFSshn16eEqJVB-2" vertex="1">
          <mxGeometry x="50" y="500" width="147" height="10" as="geometry" />
        </mxCell>
        <mxCell id="zbvgG5rFSshn16eEqJVB-128" style="edgeStyle=orthogonalEdgeStyle;rounded=0;orthogonalLoop=1;jettySize=auto;html=1;exitX=0.5;exitY=1;exitDx=0;exitDy=0;endArrow=open;endFill=0;" parent="zbvgG5rFSshn16eEqJVB-2" source="zbvgG5rFSshn16eEqJVB-109" edge="1">
          <mxGeometry relative="1" as="geometry">
            <mxPoint x="71" y="650" as="targetPoint" />
          </mxGeometry>
        </mxCell>
        <mxCell id="zbvgG5rFSshn16eEqJVB-109" value="Start manual review" style="rounded=1;whiteSpace=wrap;html=1;shadow=0;comic=0;labelBackgroundColor=none;strokeWidth=1;fontFamily=Verdana;fontSize=12;align=center;arcSize=50;" parent="zbvgG5rFSshn16eEqJVB-2" vertex="1">
          <mxGeometry x="21" y="544" width="100" height="30" as="geometry" />
        </mxCell>
        <mxCell id="zbvgG5rFSshn16eEqJVB-110" value="Request suggestions" style="rounded=1;whiteSpace=wrap;html=1;shadow=0;comic=0;labelBackgroundColor=none;strokeWidth=1;fontFamily=Verdana;fontSize=12;align=center;arcSize=50;" parent="zbvgG5rFSshn16eEqJVB-2" vertex="1">
          <mxGeometry x="130" y="544" width="100" height="30" as="geometry" />
        </mxCell>
        <mxCell id="zbvgG5rFSshn16eEqJVB-131" style="edgeStyle=orthogonalEdgeStyle;rounded=0;orthogonalLoop=1;jettySize=auto;html=1;exitX=0.5;exitY=1;exitDx=0;exitDy=0;entryX=0.5;entryY=0;entryDx=0;entryDy=0;endArrow=open;endFill=0;" parent="zbvgG5rFSshn16eEqJVB-2" source="zbvgG5rFSshn16eEqJVB-114" target="zbvgG5rFSshn16eEqJVB-129" edge="1">
          <mxGeometry relative="1" as="geometry" />
        </mxCell>
        <mxCell id="zbvgG5rFSshn16eEqJVB-114" value="" style="whiteSpace=wrap;html=1;rounded=0;shadow=0;comic=0;labelBackgroundColor=none;strokeWidth=1;fillColor=#000000;fontFamily=Verdana;fontSize=12;align=center;rotation=0;" parent="zbvgG5rFSshn16eEqJVB-2" vertex="1">
          <mxGeometry x="51.5" y="651" width="147" height="10" as="geometry" />
        </mxCell>
        <mxCell id="zbvgG5rFSshn16eEqJVB-127" style="edgeStyle=orthogonalEdgeStyle;rounded=0;orthogonalLoop=1;jettySize=auto;html=1;exitX=0.5;exitY=1;exitDx=0;exitDy=0;entryX=0.874;entryY=-0.035;entryDx=0;entryDy=0;entryPerimeter=0;endArrow=open;endFill=0;" parent="zbvgG5rFSshn16eEqJVB-2" source="zbvgG5rFSshn16eEqJVB-125" target="zbvgG5rFSshn16eEqJVB-114" edge="1">
          <mxGeometry relative="1" as="geometry" />
        </mxCell>
        <mxCell id="zbvgG5rFSshn16eEqJVB-125" value="Review suggestions" style="rounded=1;whiteSpace=wrap;html=1;shadow=0;comic=0;labelBackgroundColor=none;strokeWidth=1;fontFamily=Verdana;fontSize=12;align=center;arcSize=50;" parent="zbvgG5rFSshn16eEqJVB-2" vertex="1">
          <mxGeometry x="130" y="590.5" width="100" height="33" as="geometry" />
        </mxCell>
        <mxCell id="zbvgG5rFSshn16eEqJVB-129" value="Submit assessment" style="rounded=1;whiteSpace=wrap;html=1;shadow=0;comic=0;labelBackgroundColor=none;strokeWidth=1;fontFamily=Verdana;fontSize=12;align=center;arcSize=50;" parent="zbvgG5rFSshn16eEqJVB-2" vertex="1">
          <mxGeometry x="73.5" y="694" width="100" height="30" as="geometry" />
        </mxCell>
        <mxCell id="zbvgG5rFSshn16eEqJVB-11" value="Artemis" style="swimlane;html=1;startSize=20;" parent="zbvgG5rFSshn16eEqJVB-1" vertex="1">
          <mxGeometry x="250" width="250" height="1070" as="geometry" />
        </mxCell>
        <mxCell id="zbvgG5rFSshn16eEqJVB-29" value="" style="ellipse;whiteSpace=wrap;html=1;rounded=0;shadow=0;comic=0;labelBackgroundColor=none;strokeWidth=1;fillColor=#000000;fontFamily=Verdana;fontSize=12;align=center;" parent="zbvgG5rFSshn16eEqJVB-11" vertex="1">
          <mxGeometry x="10" y="50" width="20" height="20" as="geometry" />
        </mxCell>
        <mxCell id="zbvgG5rFSshn16eEqJVB-30" value="Prepare assessment" style="rounded=1;whiteSpace=wrap;html=1;shadow=0;comic=0;labelBackgroundColor=none;strokeWidth=1;fontFamily=Verdana;fontSize=12;align=center;arcSize=50;" parent="zbvgG5rFSshn16eEqJVB-11" vertex="1">
          <mxGeometry x="52.5" y="45" width="145" height="30" as="geometry" />
        </mxCell>
        <mxCell id="zbvgG5rFSshn16eEqJVB-56" style="edgeStyle=orthogonalEdgeStyle;rounded=0;html=1;labelBackgroundColor=none;startArrow=none;startFill=0;startSize=5;endArrow=open;endFill=0;endSize=5;jettySize=auto;orthogonalLoop=1;strokeWidth=1;fontFamily=Verdana;fontSize=12;exitX=0.457;exitY=1;exitDx=0;exitDy=0;entryX=0.449;entryY=-0.001;entryDx=0;entryDy=0;exitPerimeter=0;entryPerimeter=0;" parent="zbvgG5rFSshn16eEqJVB-11" source="zbvgG5rFSshn16eEqJVB-30" target="zbvgG5rFSshn16eEqJVB-32" edge="1">
          <mxGeometry relative="1" as="geometry">
            <mxPoint x="118.75" y="120" as="targetPoint" />
          </mxGeometry>
        </mxCell>
        <mxCell id="zbvgG5rFSshn16eEqJVB-28" style="edgeStyle=orthogonalEdgeStyle;rounded=0;html=1;labelBackgroundColor=none;startArrow=none;startFill=0;startSize=5;endArrow=open;endFill=0;endSize=5;jettySize=auto;orthogonalLoop=1;strokeWidth=1;fontFamily=Verdana;fontSize=12" parent="zbvgG5rFSshn16eEqJVB-11" source="zbvgG5rFSshn16eEqJVB-29" target="zbvgG5rFSshn16eEqJVB-30" edge="1">
          <mxGeometry relative="1" as="geometry" />
        </mxCell>
        <mxCell id="zbvgG5rFSshn16eEqJVB-32" value="Send submissions&lt;br&gt;to Athena" style="rounded=1;whiteSpace=wrap;html=1;shadow=0;comic=0;labelBackgroundColor=none;strokeWidth=1;fontFamily=Verdana;fontSize=12;align=center;arcSize=50;" parent="zbvgG5rFSshn16eEqJVB-11" vertex="1">
          <mxGeometry x="57" y="120" width="137.5" height="30" as="geometry" />
        </mxCell>
        <mxCell id="zbvgG5rFSshn16eEqJVB-70" value="Enable assessment" style="rounded=1;whiteSpace=wrap;html=1;shadow=0;comic=0;labelBackgroundColor=none;strokeWidth=1;fontFamily=Verdana;fontSize=12;align=center;arcSize=50;" parent="zbvgG5rFSshn16eEqJVB-11" vertex="1">
          <mxGeometry x="57" y="206" width="130" height="30" as="geometry" />
        </mxCell>
        <mxCell id="ZDzXS1NFEA4-rNNsYtRD-3" style="edgeStyle=orthogonalEdgeStyle;rounded=0;orthogonalLoop=1;jettySize=auto;html=1;exitX=0.5;exitY=1;exitDx=0;exitDy=0;entryX=0.5;entryY=0;entryDx=0;entryDy=0;endArrow=open;endFill=0;" parent="zbvgG5rFSshn16eEqJVB-11" source="zbvgG5rFSshn16eEqJVB-81" target="zbvgG5rFSshn16eEqJVB-89" edge="1">
          <mxGeometry relative="1" as="geometry" />
        </mxCell>
        <mxCell id="zbvgG5rFSshn16eEqJVB-81" value="Select submission to assess" style="rounded=1;whiteSpace=wrap;html=1;shadow=0;comic=0;labelBackgroundColor=none;strokeWidth=1;fontFamily=Verdana;fontSize=12;align=center;arcSize=50;" parent="zbvgG5rFSshn16eEqJVB-11" vertex="1">
          <mxGeometry x="18" y="266" width="120" height="30" as="geometry" />
        </mxCell>
        <mxCell id="zbvgG5rFSshn16eEqJVB-106" style="edgeStyle=orthogonalEdgeStyle;rounded=0;orthogonalLoop=1;jettySize=auto;html=1;exitX=0;exitY=0.5;exitDx=0;exitDy=0;entryX=1;entryY=0.5;entryDx=0;entryDy=0;endArrow=open;endFill=0;" parent="zbvgG5rFSshn16eEqJVB-11" source="zbvgG5rFSshn16eEqJVB-96" target="zbvgG5rFSshn16eEqJVB-37" edge="1">
          <mxGeometry relative="1" as="geometry" />
        </mxCell>
        <mxCell id="zbvgG5rFSshn16eEqJVB-96" value="Send submission&lt;br&gt;to tutor" style="rounded=1;whiteSpace=wrap;html=1;shadow=0;comic=0;labelBackgroundColor=none;strokeWidth=1;fontFamily=Verdana;fontSize=12;align=center;arcSize=50;" parent="zbvgG5rFSshn16eEqJVB-11" vertex="1">
          <mxGeometry x="74" y="454" width="150" height="30" as="geometry" />
        </mxCell>
        <mxCell id="ZDzXS1NFEA4-rNNsYtRD-8" style="edgeStyle=orthogonalEdgeStyle;rounded=0;orthogonalLoop=1;jettySize=auto;html=1;exitX=1;exitY=0.5;exitDx=0;exitDy=0;entryX=0;entryY=0.5;entryDx=0;entryDy=0;endArrow=open;endFill=0;" parent="zbvgG5rFSshn16eEqJVB-11" source="zbvgG5rFSshn16eEqJVB-98" target="ZDzXS1NFEA4-rNNsYtRD-1" edge="1">
          <mxGeometry relative="1" as="geometry" />
        </mxCell>
        <mxCell id="zbvgG5rFSshn16eEqJVB-98" value="Choose random submission" style="rounded=1;whiteSpace=wrap;html=1;shadow=0;comic=0;labelBackgroundColor=none;strokeWidth=1;fontFamily=Verdana;fontSize=12;align=center;arcSize=50;" parent="zbvgG5rFSshn16eEqJVB-11" vertex="1">
          <mxGeometry x="13" y="394" width="121.75" height="30" as="geometry" />
        </mxCell>
        <mxCell id="zbvgG5rFSshn16eEqJVB-37" value="Submission" style="rounded=0;whiteSpace=wrap;html=1;shadow=0;comic=0;labelBackgroundColor=none;strokeWidth=1;fontFamily=Verdana;fontSize=12;align=center;arcSize=50;" parent="zbvgG5rFSshn16eEqJVB-11" vertex="1">
          <mxGeometry x="-46" y="454" width="90" height="30" as="geometry" />
        </mxCell>
        <mxCell id="zbvgG5rFSshn16eEqJVB-137" style="edgeStyle=orthogonalEdgeStyle;rounded=0;orthogonalLoop=1;jettySize=auto;html=1;exitX=1;exitY=0.5;exitDx=0;exitDy=0;entryX=0.5;entryY=0;entryDx=0;entryDy=0;endArrow=open;endFill=0;" parent="zbvgG5rFSshn16eEqJVB-11" source="zbvgG5rFSshn16eEqJVB-132" target="zbvgG5rFSshn16eEqJVB-136" edge="1">
          <mxGeometry relative="1" as="geometry" />
        </mxCell>
        <mxCell id="zbvgG5rFSshn16eEqJVB-132" value="Assessment" style="rounded=0;whiteSpace=wrap;html=1;shadow=0;comic=0;labelBackgroundColor=none;strokeWidth=1;fontFamily=Verdana;fontSize=12;align=center;arcSize=50;" parent="zbvgG5rFSshn16eEqJVB-11" vertex="1">
          <mxGeometry x="-42.25" y="694" width="84.5" height="30" as="geometry" />
        </mxCell>
        <mxCell id="zbvgG5rFSshn16eEqJVB-144" style="edgeStyle=orthogonalEdgeStyle;rounded=0;orthogonalLoop=1;jettySize=auto;html=1;exitX=0.5;exitY=1;exitDx=0;exitDy=0;entryX=0.17;entryY=-0.069;entryDx=0;entryDy=0;entryPerimeter=0;endArrow=open;endFill=0;" parent="zbvgG5rFSshn16eEqJVB-11" source="zbvgG5rFSshn16eEqJVB-134" target="zbvgG5rFSshn16eEqJVB-143" edge="1">
          <mxGeometry relative="1" as="geometry" />
        </mxCell>
        <mxCell id="zbvgG5rFSshn16eEqJVB-134" value="Save assessment" style="rounded=1;whiteSpace=wrap;html=1;shadow=0;comic=0;labelBackgroundColor=none;strokeWidth=1;fontFamily=Verdana;fontSize=12;align=center;arcSize=50;" parent="zbvgG5rFSshn16eEqJVB-11" vertex="1">
          <mxGeometry x="26.75" y="810" width="100" height="30" as="geometry" />
        </mxCell>
        <mxCell id="zbvgG5rFSshn16eEqJVB-135" value="Send assessment to Athena" style="rounded=1;whiteSpace=wrap;html=1;shadow=0;comic=0;labelBackgroundColor=none;strokeWidth=1;fontFamily=Verdana;fontSize=12;align=center;arcSize=50;" parent="zbvgG5rFSshn16eEqJVB-11" vertex="1">
          <mxGeometry x="120" y="776" width="120" height="30" as="geometry" />
        </mxCell>
        <mxCell id="zbvgG5rFSshn16eEqJVB-138" style="edgeStyle=orthogonalEdgeStyle;rounded=0;orthogonalLoop=1;jettySize=auto;html=1;exitX=0.194;exitY=0.95;exitDx=0;exitDy=0;entryX=0.5;entryY=0;entryDx=0;entryDy=0;endArrow=open;endFill=0;exitPerimeter=0;" parent="zbvgG5rFSshn16eEqJVB-11" source="zbvgG5rFSshn16eEqJVB-136" target="zbvgG5rFSshn16eEqJVB-134" edge="1">
          <mxGeometry relative="1" as="geometry" />
        </mxCell>
        <mxCell id="zbvgG5rFSshn16eEqJVB-139" style="edgeStyle=orthogonalEdgeStyle;rounded=0;orthogonalLoop=1;jettySize=auto;html=1;exitX=0.75;exitY=1;exitDx=0;exitDy=0;entryX=0.5;entryY=0;entryDx=0;entryDy=0;endArrow=open;endFill=0;" parent="zbvgG5rFSshn16eEqJVB-11" source="zbvgG5rFSshn16eEqJVB-136" target="zbvgG5rFSshn16eEqJVB-135" edge="1">
          <mxGeometry relative="1" as="geometry" />
        </mxCell>
        <mxCell id="zbvgG5rFSshn16eEqJVB-136" value="" style="whiteSpace=wrap;html=1;rounded=0;shadow=0;comic=0;labelBackgroundColor=none;strokeWidth=1;fillColor=#000000;fontFamily=Verdana;fontSize=12;align=center;rotation=0;" parent="zbvgG5rFSshn16eEqJVB-11" vertex="1">
          <mxGeometry x="48.5" y="740" width="147" height="10" as="geometry" />
        </mxCell>
        <mxCell id="zbvgG5rFSshn16eEqJVB-149" style="edgeStyle=orthogonalEdgeStyle;rounded=0;orthogonalLoop=1;jettySize=auto;html=1;exitX=0.5;exitY=1;exitDx=0;exitDy=0;entryX=0.5;entryY=0;entryDx=0;entryDy=0;endArrow=open;endFill=0;" parent="zbvgG5rFSshn16eEqJVB-11" source="zbvgG5rFSshn16eEqJVB-143" target="zbvgG5rFSshn16eEqJVB-148" edge="1">
          <mxGeometry relative="1" as="geometry" />
        </mxCell>
        <mxCell id="zbvgG5rFSshn16eEqJVB-143" value="" style="whiteSpace=wrap;html=1;rounded=0;shadow=0;comic=0;labelBackgroundColor=none;strokeWidth=1;fillColor=#000000;fontFamily=Verdana;fontSize=12;align=center;rotation=0;" parent="zbvgG5rFSshn16eEqJVB-11" vertex="1">
          <mxGeometry x="51.5" y="900" width="147" height="10" as="geometry" />
        </mxCell>
        <mxCell id="zbvgG5rFSshn16eEqJVB-151" style="edgeStyle=orthogonalEdgeStyle;rounded=0;orthogonalLoop=1;jettySize=auto;html=1;exitX=0.5;exitY=1;exitDx=0;exitDy=0;entryX=0.5;entryY=0;entryDx=0;entryDy=0;" parent="zbvgG5rFSshn16eEqJVB-11" source="zbvgG5rFSshn16eEqJVB-148" target="zbvgG5rFSshn16eEqJVB-150" edge="1">
          <mxGeometry relative="1" as="geometry" />
        </mxCell>
        <mxCell id="zbvgG5rFSshn16eEqJVB-152" value="&lt;font style=&quot;font-size: 14px;&quot;&gt;[all submissions assessed]&lt;/font&gt;" style="edgeLabel;html=1;align=center;verticalAlign=middle;resizable=0;points=[];fontSize=14;" parent="zbvgG5rFSshn16eEqJVB-151" connectable="0" vertex="1">
          <mxGeometry x="-0.24" relative="1" as="geometry">
            <mxPoint as="offset" />
          </mxGeometry>
        </mxCell>
        <mxCell id="zbvgG5rFSshn16eEqJVB-148" value="" style="rhombus;whiteSpace=wrap;html=1;" parent="zbvgG5rFSshn16eEqJVB-11" vertex="1">
          <mxGeometry x="105" y="930" width="40" height="40" as="geometry" />
        </mxCell>
        <mxCell id="zbvgG5rFSshn16eEqJVB-150" value="" style="shape=mxgraph.bpmn.shape;html=1;verticalLabelPosition=bottom;labelBackgroundColor=#ffffff;verticalAlign=top;perimeter=ellipsePerimeter;outline=end;symbol=terminate;rounded=0;shadow=0;comic=0;strokeWidth=1;fontFamily=Verdana;fontSize=12;align=center;" parent="zbvgG5rFSshn16eEqJVB-11" vertex="1">
          <mxGeometry x="105" y="1010" width="40" height="40" as="geometry" />
        </mxCell>
        <mxCell id="ZDzXS1NFEA4-rNNsYtRD-4" style="edgeStyle=orthogonalEdgeStyle;rounded=0;orthogonalLoop=1;jettySize=auto;html=1;exitX=0.5;exitY=1;exitDx=0;exitDy=0;entryX=0.529;entryY=0.02;entryDx=0;entryDy=0;entryPerimeter=0;endArrow=open;endFill=0;" parent="zbvgG5rFSshn16eEqJVB-11" source="zbvgG5rFSshn16eEqJVB-89" target="zbvgG5rFSshn16eEqJVB-98" edge="1">
          <mxGeometry relative="1" as="geometry" />
        </mxCell>
        <mxCell id="ZDzXS1NFEA4-rNNsYtRD-5" value="[not supported]" style="edgeLabel;html=1;align=center;verticalAlign=middle;resizable=0;points=[];" parent="ZDzXS1NFEA4-rNNsYtRD-4" connectable="0" vertex="1">
          <mxGeometry x="-0.2597" relative="1" as="geometry">
            <mxPoint as="offset" />
          </mxGeometry>
        </mxCell>
        <mxCell id="zbvgG5rFSshn16eEqJVB-89" value="" style="rhombus;whiteSpace=wrap;html=1;" parent="zbvgG5rFSshn16eEqJVB-11" vertex="1">
          <mxGeometry x="58" y="319" width="40" height="40" as="geometry" />
        </mxCell>
        <mxCell id="ZDzXS1NFEA4-rNNsYtRD-2" style="edgeStyle=orthogonalEdgeStyle;rounded=0;orthogonalLoop=1;jettySize=auto;html=1;exitX=0.5;exitY=1;exitDx=0;exitDy=0;entryX=0.669;entryY=-0.014;entryDx=0;entryDy=0;entryPerimeter=0;endArrow=open;endFill=0;" parent="zbvgG5rFSshn16eEqJVB-11" source="ZDzXS1NFEA4-rNNsYtRD-1" target="zbvgG5rFSshn16eEqJVB-96" edge="1">
          <mxGeometry relative="1" as="geometry" />
        </mxCell>
        <mxCell id="ZDzXS1NFEA4-rNNsYtRD-1" value="" style="rhombus;whiteSpace=wrap;html=1;" parent="zbvgG5rFSshn16eEqJVB-11" vertex="1">
          <mxGeometry x="154.5" y="389" width="40" height="40" as="geometry" />
        </mxCell>
        <mxCell id="zbvgG5rFSshn16eEqJVB-72" style="edgeStyle=orthogonalEdgeStyle;rounded=0;orthogonalLoop=1;jettySize=auto;html=1;exitX=0;exitY=0.5;exitDx=0;exitDy=0;entryX=0.5;entryY=0;entryDx=0;entryDy=0;endArrow=open;endFill=0;" parent="zbvgG5rFSshn16eEqJVB-1" source="zbvgG5rFSshn16eEqJVB-70" target="zbvgG5rFSshn16eEqJVB-71" edge="1">
          <mxGeometry relative="1" as="geometry" />
        </mxCell>
        <mxCell id="zbvgG5rFSshn16eEqJVB-77" style="edgeStyle=orthogonalEdgeStyle;rounded=0;orthogonalLoop=1;jettySize=auto;html=1;exitX=0.5;exitY=1;exitDx=0;exitDy=0;entryX=0.5;entryY=0;entryDx=0;entryDy=0;endArrow=open;endFill=0;" parent="zbvgG5rFSshn16eEqJVB-1" source="zbvgG5rFSshn16eEqJVB-34" target="zbvgG5rFSshn16eEqJVB-70" edge="1">
          <mxGeometry relative="1" as="geometry" />
        </mxCell>
        <mxCell id="zbvgG5rFSshn16eEqJVB-108" style="edgeStyle=orthogonalEdgeStyle;rounded=0;orthogonalLoop=1;jettySize=auto;html=1;exitX=0;exitY=0.5;exitDx=0;exitDy=0;entryX=0.5;entryY=0;entryDx=0;entryDy=0;endArrow=open;endFill=0;" parent="zbvgG5rFSshn16eEqJVB-1" source="zbvgG5rFSshn16eEqJVB-37" target="zbvgG5rFSshn16eEqJVB-107" edge="1">
          <mxGeometry relative="1" as="geometry" />
        </mxCell>
        <mxCell id="zbvgG5rFSshn16eEqJVB-117" style="edgeStyle=orthogonalEdgeStyle;rounded=0;orthogonalLoop=1;jettySize=auto;html=1;exitX=1;exitY=0.5;exitDx=0;exitDy=0;entryX=0;entryY=0.5;entryDx=0;entryDy=0;endArrow=open;endFill=0;" parent="zbvgG5rFSshn16eEqJVB-1" source="zbvgG5rFSshn16eEqJVB-110" target="zbvgG5rFSshn16eEqJVB-116" edge="1">
          <mxGeometry relative="1" as="geometry">
            <mxPoint x="325" y="559" as="targetPoint" />
          </mxGeometry>
        </mxCell>
        <mxCell id="zbvgG5rFSshn16eEqJVB-122" style="edgeStyle=orthogonalEdgeStyle;rounded=0;orthogonalLoop=1;jettySize=auto;html=1;exitX=0;exitY=0.5;exitDx=0;exitDy=0;entryX=1;entryY=0.5;entryDx=0;entryDy=0;endArrow=open;endFill=0;" parent="zbvgG5rFSshn16eEqJVB-1" source="zbvgG5rFSshn16eEqJVB-120" target="zbvgG5rFSshn16eEqJVB-125" edge="1">
          <mxGeometry relative="1" as="geometry">
            <mxPoint x="425.75" y="608" as="targetPoint" />
          </mxGeometry>
        </mxCell>
        <mxCell id="zbvgG5rFSshn16eEqJVB-133" style="edgeStyle=orthogonalEdgeStyle;rounded=0;orthogonalLoop=1;jettySize=auto;html=1;exitX=1;exitY=0.5;exitDx=0;exitDy=0;entryX=0;entryY=0.5;entryDx=0;entryDy=0;endArrow=open;endFill=0;" parent="zbvgG5rFSshn16eEqJVB-1" source="zbvgG5rFSshn16eEqJVB-129" target="zbvgG5rFSshn16eEqJVB-132" edge="1">
          <mxGeometry relative="1" as="geometry" />
        </mxCell>
        <mxCell id="zbvgG5rFSshn16eEqJVB-142" style="edgeStyle=orthogonalEdgeStyle;rounded=0;orthogonalLoop=1;jettySize=auto;html=1;exitX=0.5;exitY=1;exitDx=0;exitDy=0;entryX=0;entryY=0.5;entryDx=0;entryDy=0;endArrow=open;endFill=0;" parent="zbvgG5rFSshn16eEqJVB-1" source="zbvgG5rFSshn16eEqJVB-135" target="zbvgG5rFSshn16eEqJVB-140" edge="1">
          <mxGeometry relative="1" as="geometry" />
        </mxCell>
        <mxCell id="zbvgG5rFSshn16eEqJVB-147" style="edgeStyle=orthogonalEdgeStyle;rounded=0;orthogonalLoop=1;jettySize=auto;html=1;exitX=0.5;exitY=1;exitDx=0;exitDy=0;entryX=0.75;entryY=0;entryDx=0;entryDy=0;endArrow=open;endFill=0;" parent="zbvgG5rFSshn16eEqJVB-1" source="zbvgG5rFSshn16eEqJVB-145" target="zbvgG5rFSshn16eEqJVB-143" edge="1">
          <mxGeometry relative="1" as="geometry" />
        </mxCell>
        <mxCell id="zbvgG5rFSshn16eEqJVB-153" style="edgeStyle=orthogonalEdgeStyle;rounded=0;orthogonalLoop=1;jettySize=auto;html=1;exitX=0;exitY=0.5;exitDx=0;exitDy=0;entryX=0.25;entryY=0;entryDx=0;entryDy=0;endArrow=open;endFill=0;" parent="zbvgG5rFSshn16eEqJVB-1" source="zbvgG5rFSshn16eEqJVB-148" target="zbvgG5rFSshn16eEqJVB-71" edge="1">
          <mxGeometry relative="1" as="geometry">
            <Array as="points">
              <mxPoint x="10" y="950" />
              <mxPoint x="10" y="246" />
              <mxPoint x="83" y="246" />
            </Array>
          </mxGeometry>
        </mxCell>
        <mxCell id="zbvgG5rFSshn16eEqJVB-154" value="&lt;font style=&quot;font-size: 14px;&quot;&gt;[more submissions to assess]&lt;/font&gt;" style="edgeLabel;html=1;align=center;verticalAlign=middle;resizable=0;points=[];fontSize=14;" parent="zbvgG5rFSshn16eEqJVB-153" connectable="0" vertex="1">
          <mxGeometry x="-0.8692" y="1" relative="1" as="geometry">
            <mxPoint x="-40" y="-1" as="offset" />
          </mxGeometry>
        </mxCell>
        <mxCell id="ZDzXS1NFEA4-rNNsYtRD-6" style="edgeStyle=orthogonalEdgeStyle;rounded=0;orthogonalLoop=1;jettySize=auto;html=1;exitX=1;exitY=0.5;exitDx=0;exitDy=0;entryX=0;entryY=0.5;entryDx=0;entryDy=0;endArrow=open;endFill=0;" parent="zbvgG5rFSshn16eEqJVB-1" source="zbvgG5rFSshn16eEqJVB-89" target="zbvgG5rFSshn16eEqJVB-83" edge="1">
          <mxGeometry relative="1" as="geometry" />
        </mxCell>
        <mxCell id="ZDzXS1NFEA4-rNNsYtRD-7" value="[supported]" style="edgeLabel;html=1;align=center;verticalAlign=middle;resizable=0;points=[];" parent="ZDzXS1NFEA4-rNNsYtRD-6" connectable="0" vertex="1">
          <mxGeometry x="-0.061" relative="1" as="geometry">
            <mxPoint as="offset" />
          </mxGeometry>
        </mxCell>
        <mxCell id="ZDzXS1NFEA4-rNNsYtRD-9" style="edgeStyle=orthogonalEdgeStyle;rounded=0;orthogonalLoop=1;jettySize=auto;html=1;exitX=0;exitY=0.5;exitDx=0;exitDy=0;entryX=1;entryY=0.5;entryDx=0;entryDy=0;endArrow=open;endFill=0;" parent="zbvgG5rFSshn16eEqJVB-1" source="zbvgG5rFSshn16eEqJVB-86" target="ZDzXS1NFEA4-rNNsYtRD-1" edge="1">
          <mxGeometry relative="1" as="geometry" />
        </mxCell>
        <mxCell id="zbvgG5rFSshn16eEqJVB-27" value="Athena" style="swimlane;html=1;startSize=20;" parent="zbvgG5rFSshn16eEqJVB-1" vertex="1">
          <mxGeometry x="500" width="250" height="1070" as="geometry" />
        </mxCell>
        <mxCell id="zbvgG5rFSshn16eEqJVB-34" value="Process submissions" style="rounded=1;whiteSpace=wrap;html=1;shadow=0;comic=0;labelBackgroundColor=none;strokeWidth=1;fontFamily=Verdana;fontSize=12;align=center;arcSize=50;" parent="zbvgG5rFSshn16eEqJVB-27" vertex="1">
          <mxGeometry x="75" y="120" width="100" height="30" as="geometry" />
        </mxCell>
        <mxCell id="zbvgG5rFSshn16eEqJVB-86" value="Select submission" style="rounded=1;whiteSpace=wrap;html=1;shadow=0;comic=0;labelBackgroundColor=none;strokeWidth=1;fontFamily=Verdana;fontSize=12;align=center;arcSize=50;" parent="zbvgG5rFSshn16eEqJVB-27" vertex="1">
          <mxGeometry x="75" y="394" width="100" height="30" as="geometry" />
        </mxCell>
        <mxCell id="zbvgG5rFSshn16eEqJVB-92" style="edgeStyle=orthogonalEdgeStyle;rounded=0;orthogonalLoop=1;jettySize=auto;html=1;endArrow=open;endFill=0;exitX=1;exitY=0.5;exitDx=0;exitDy=0;entryX=0.5;entryY=0;entryDx=0;entryDy=0;" parent="zbvgG5rFSshn16eEqJVB-27" source="zbvgG5rFSshn16eEqJVB-83" target="zbvgG5rFSshn16eEqJVB-86" edge="1">
          <mxGeometry relative="1" as="geometry">
            <mxPoint x="110" y="295" as="sourcePoint" />
            <mxPoint x="140" y="350" as="targetPoint" />
          </mxGeometry>
        </mxCell>
        <mxCell id="zbvgG5rFSshn16eEqJVB-121" style="edgeStyle=orthogonalEdgeStyle;rounded=0;orthogonalLoop=1;jettySize=auto;html=1;exitX=0.5;exitY=1;exitDx=0;exitDy=0;entryX=1.001;entryY=0.6;entryDx=0;entryDy=0;endArrow=open;endFill=0;entryPerimeter=0;" parent="zbvgG5rFSshn16eEqJVB-27" source="zbvgG5rFSshn16eEqJVB-116" target="ZDzXS1NFEA4-rNNsYtRD-15" edge="1">
          <mxGeometry relative="1" as="geometry" />
        </mxCell>
        <mxCell id="zbvgG5rFSshn16eEqJVB-116" value="Generate feedback suggestions" style="rounded=1;whiteSpace=wrap;html=1;shadow=0;comic=0;labelBackgroundColor=none;strokeWidth=1;fontFamily=Verdana;fontSize=12;align=center;arcSize=50;" parent="zbvgG5rFSshn16eEqJVB-27" vertex="1">
          <mxGeometry x="52.5" y="544" width="145" height="30" as="geometry" />
        </mxCell>
        <mxCell id="ZDzXS1NFEA4-rNNsYtRD-15" value="" style="rounded=0;whiteSpace=wrap;html=1;shadow=0;comic=0;labelBackgroundColor=none;strokeWidth=1;fontFamily=Verdana;fontSize=12;align=center;arcSize=50;" parent="zbvgG5rFSshn16eEqJVB-27" vertex="1">
          <mxGeometry x="-39" y="589" width="84.5" height="30" as="geometry" />
        </mxCell>
        <mxCell id="zbvgG5rFSshn16eEqJVB-120" value="Feedback Suggestion" style="rounded=0;whiteSpace=wrap;html=1;shadow=0;comic=0;labelBackgroundColor=none;strokeWidth=1;fontFamily=Verdana;fontSize=12;align=center;arcSize=50;" parent="zbvgG5rFSshn16eEqJVB-27" vertex="1">
          <mxGeometry x="-42" y="592" width="84.5" height="30" as="geometry" />
        </mxCell>
        <mxCell id="zbvgG5rFSshn16eEqJVB-146" style="edgeStyle=orthogonalEdgeStyle;rounded=0;orthogonalLoop=1;jettySize=auto;html=1;exitX=1;exitY=0.5;exitDx=0;exitDy=0;entryX=0;entryY=0.5;entryDx=0;entryDy=0;endArrow=open;endFill=0;" parent="zbvgG5rFSshn16eEqJVB-27" source="zbvgG5rFSshn16eEqJVB-140" target="zbvgG5rFSshn16eEqJVB-145" edge="1">
          <mxGeometry relative="1" as="geometry" />
        </mxCell>
        <mxCell id="zbvgG5rFSshn16eEqJVB-140" value="Assessment" style="rounded=0;whiteSpace=wrap;html=1;shadow=0;comic=0;labelBackgroundColor=none;strokeWidth=1;fontFamily=Verdana;fontSize=12;align=center;arcSize=50;" parent="zbvgG5rFSshn16eEqJVB-27" vertex="1">
          <mxGeometry x="-42" y="824" width="84.5" height="30" as="geometry" />
        </mxCell>
        <mxCell id="zbvgG5rFSshn16eEqJVB-145" value="Learn from past feedback" style="rounded=1;whiteSpace=wrap;html=1;shadow=0;comic=0;labelBackgroundColor=none;strokeWidth=1;fontFamily=Verdana;fontSize=12;align=center;arcSize=50;" parent="zbvgG5rFSshn16eEqJVB-27" vertex="1">
          <mxGeometry x="74" y="824" width="125" height="30" as="geometry" />
        </mxCell>
        <mxCell id="ZDzXS1NFEA4-rNNsYtRD-14" value="" style="rounded=0;whiteSpace=wrap;html=1;shadow=0;comic=0;labelBackgroundColor=none;strokeWidth=1;fontFamily=Verdana;fontSize=12;align=center;arcSize=50;" parent="zbvgG5rFSshn16eEqJVB-27" vertex="1">
          <mxGeometry x="-39" y="321" width="84.5" height="30" as="geometry" />
        </mxCell>
        <mxCell id="zbvgG5rFSshn16eEqJVB-83" value="Submission ID" style="rounded=0;whiteSpace=wrap;html=1;shadow=0;comic=0;labelBackgroundColor=none;strokeWidth=1;fontFamily=Verdana;fontSize=12;align=center;arcSize=50;" parent="zbvgG5rFSshn16eEqJVB-27" vertex="1">
          <mxGeometry x="-42" y="324" width="84.5" height="30" as="geometry" />
        </mxCell>
        <mxCell id="ZDzXS1NFEA4-rNNsYtRD-10" value="Submission" style="rounded=0;whiteSpace=wrap;html=1;shadow=0;comic=0;labelBackgroundColor=none;strokeWidth=1;fontFamily=Verdana;fontSize=12;align=center;arcSize=50;" parent="1" vertex="1">
          <mxGeometry x="501.25" y="137" width="84.5" height="30" as="geometry" />
        </mxCell>
        <mxCell id="zbvgG5rFSshn16eEqJVB-36" value="Submission" style="rounded=0;whiteSpace=wrap;html=1;shadow=0;comic=0;labelBackgroundColor=none;strokeWidth=1;fontFamily=Verdana;fontSize=12;align=center;arcSize=50;" parent="1" vertex="1">
          <mxGeometry x="498.25" y="140" width="84.5" height="30" as="geometry" />
        </mxCell>
        <mxCell id="zbvgG5rFSshn16eEqJVB-35" style="edgeStyle=none;rounded=0;html=1;labelBackgroundColor=none;startArrow=none;startFill=0;startSize=5;endArrow=open;endFill=0;endSize=5;jettySize=auto;orthogonalLoop=1;strokeWidth=1;fontFamily=Verdana;fontSize=12;entryX=0;entryY=0.5;entryDx=0;entryDy=0;exitX=1.001;exitY=0.6;exitDx=0;exitDy=0;exitPerimeter=0;" parent="1" source="ZDzXS1NFEA4-rNNsYtRD-10" target="zbvgG5rFSshn16eEqJVB-34" edge="1">
          <mxGeometry relative="1" as="geometry">
            <mxPoint x="577.5" y="300" as="targetPoint" />
            <mxPoint x="590" y="155" as="sourcePoint" />
          </mxGeometry>
        </mxCell>
        <mxCell id="zbvgG5rFSshn16eEqJVB-31" style="rounded=0;html=1;labelBackgroundColor=none;startArrow=none;startFill=0;startSize=5;endArrow=open;endFill=0;endSize=5;jettySize=auto;orthogonalLoop=1;strokeWidth=1;fontFamily=Verdana;fontSize=12;exitX=1;exitY=0.5;exitDx=0;exitDy=0;entryX=0;entryY=0.5;entryDx=0;entryDy=0;" parent="1" source="zbvgG5rFSshn16eEqJVB-32" target="zbvgG5rFSshn16eEqJVB-36" edge="1">
          <mxGeometry relative="1" as="geometry">
            <mxPoint x="484.5" y="154.97" as="sourcePoint" />
            <mxPoint x="502" y="154.97" as="targetPoint" />
          </mxGeometry>
        </mxCell>
      </root>
    </mxGraphModel>
  </diagram>
  <diagram name="problem-only" id="uC9xxE5H9tGq80pF0pdn">
    <mxGraphModel grid="1" page="1" gridSize="10" guides="1" tooltips="1" connect="1" arrows="1" fold="1" pageScale="1" pageWidth="850" pageHeight="1100" math="0" shadow="0">
      <root>
        <mxCell id="w5i4ymxL5U5C2uTVFl97-0" />
        <mxCell id="w5i4ymxL5U5C2uTVFl97-1" parent="w5i4ymxL5U5C2uTVFl97-0" />
        <mxCell id="w5i4ymxL5U5C2uTVFl97-2" value="" style="swimlane;html=1;childLayout=stackLayout;startSize=0;rounded=0;shadow=0;comic=0;labelBackgroundColor=none;strokeWidth=1;fontFamily=Verdana;fontSize=12;align=center;" parent="w5i4ymxL5U5C2uTVFl97-1" vertex="1">
          <mxGeometry x="40" y="20" width="500" height="660" as="geometry" />
        </mxCell>
        <mxCell id="w5i4ymxL5U5C2uTVFl97-3" style="edgeStyle=orthogonalEdgeStyle;rounded=0;orthogonalLoop=1;jettySize=auto;html=1;exitX=1;exitY=0.5;exitDx=0;exitDy=0;entryX=0;entryY=0.5;entryDx=0;entryDy=0;endArrow=open;endFill=0;" parent="w5i4ymxL5U5C2uTVFl97-2" source="w5i4ymxL5U5C2uTVFl97-5" target="w5i4ymxL5U5C2uTVFl97-25" edge="1">
          <mxGeometry relative="1" as="geometry" />
        </mxCell>
        <mxCell id="w5i4ymxL5U5C2uTVFl97-4" value="Tutor" style="swimlane;html=1;startSize=20;" parent="w5i4ymxL5U5C2uTVFl97-2" vertex="1">
          <mxGeometry width="250" height="660" as="geometry" />
        </mxCell>
        <mxCell id="w5i4ymxL5U5C2uTVFl97-5" value="Start assessment" style="rounded=1;whiteSpace=wrap;html=1;shadow=0;comic=0;labelBackgroundColor=none;strokeWidth=1;fontFamily=Verdana;fontSize=12;align=center;arcSize=50;" parent="w5i4ymxL5U5C2uTVFl97-4" vertex="1">
          <mxGeometry x="68.5" y="56" width="130" height="30" as="geometry" />
        </mxCell>
        <mxCell id="w5i4ymxL5U5C2uTVFl97-6" style="edgeStyle=orthogonalEdgeStyle;rounded=0;orthogonalLoop=1;jettySize=auto;html=1;exitX=0.144;exitY=0.987;exitDx=0;exitDy=0;entryX=0.5;entryY=0;entryDx=0;entryDy=0;endArrow=open;endFill=0;exitPerimeter=0;" parent="w5i4ymxL5U5C2uTVFl97-4" source="w5i4ymxL5U5C2uTVFl97-8" target="w5i4ymxL5U5C2uTVFl97-10" edge="1">
          <mxGeometry relative="1" as="geometry" />
        </mxCell>
        <mxCell id="w5i4ymxL5U5C2uTVFl97-7" style="edgeStyle=orthogonalEdgeStyle;rounded=0;orthogonalLoop=1;jettySize=auto;html=1;exitX=0.884;exitY=1.008;exitDx=0;exitDy=0;entryX=0.5;entryY=0;entryDx=0;entryDy=0;exitPerimeter=0;endArrow=open;endFill=0;" parent="w5i4ymxL5U5C2uTVFl97-4" source="w5i4ymxL5U5C2uTVFl97-8" target="w5i4ymxL5U5C2uTVFl97-11" edge="1">
          <mxGeometry relative="1" as="geometry" />
        </mxCell>
        <mxCell id="w5i4ymxL5U5C2uTVFl97-8" value="" style="whiteSpace=wrap;html=1;rounded=0;shadow=0;comic=0;labelBackgroundColor=none;strokeWidth=1;fillColor=#000000;fontFamily=Verdana;fontSize=12;align=center;rotation=0;" parent="w5i4ymxL5U5C2uTVFl97-4" vertex="1">
          <mxGeometry x="50" y="160" width="147" height="10" as="geometry" />
        </mxCell>
        <mxCell id="w5i4ymxL5U5C2uTVFl97-9" style="edgeStyle=orthogonalEdgeStyle;rounded=0;orthogonalLoop=1;jettySize=auto;html=1;exitX=0.5;exitY=1;exitDx=0;exitDy=0;endArrow=open;endFill=0;entryX=0.132;entryY=-0.134;entryDx=0;entryDy=0;entryPerimeter=0;" parent="w5i4ymxL5U5C2uTVFl97-4" source="w5i4ymxL5U5C2uTVFl97-10" edge="1" target="w5i4ymxL5U5C2uTVFl97-13">
          <mxGeometry relative="1" as="geometry">
            <mxPoint x="71" y="440" as="targetPoint" />
          </mxGeometry>
        </mxCell>
        <mxCell id="w5i4ymxL5U5C2uTVFl97-10" value="Start manual review" style="rounded=1;whiteSpace=wrap;html=1;shadow=0;comic=0;labelBackgroundColor=none;strokeWidth=1;fontFamily=Verdana;fontSize=12;align=center;arcSize=50;" parent="w5i4ymxL5U5C2uTVFl97-4" vertex="1">
          <mxGeometry x="21" y="200" width="100" height="30" as="geometry" />
        </mxCell>
        <mxCell id="w5i4ymxL5U5C2uTVFl97-11" value="Request suggestions" style="rounded=1;whiteSpace=wrap;html=1;shadow=0;comic=0;labelBackgroundColor=none;strokeWidth=1;fontFamily=Verdana;fontSize=12;align=center;arcSize=50;" parent="w5i4ymxL5U5C2uTVFl97-4" vertex="1">
          <mxGeometry x="130" y="200" width="100" height="30" as="geometry" />
        </mxCell>
        <mxCell id="w5i4ymxL5U5C2uTVFl97-12" style="edgeStyle=orthogonalEdgeStyle;rounded=0;orthogonalLoop=1;jettySize=auto;html=1;exitX=0.5;exitY=1;exitDx=0;exitDy=0;entryX=0.5;entryY=0;entryDx=0;entryDy=0;endArrow=open;endFill=0;" parent="w5i4ymxL5U5C2uTVFl97-4" source="w5i4ymxL5U5C2uTVFl97-13" target="w5i4ymxL5U5C2uTVFl97-16" edge="1">
          <mxGeometry relative="1" as="geometry" />
        </mxCell>
        <mxCell id="w5i4ymxL5U5C2uTVFl97-13" value="" style="whiteSpace=wrap;html=1;rounded=0;shadow=0;comic=0;labelBackgroundColor=none;strokeWidth=1;fillColor=#000000;fontFamily=Verdana;fontSize=12;align=center;rotation=0;" parent="w5i4ymxL5U5C2uTVFl97-4" vertex="1">
          <mxGeometry x="51.5" y="361" width="147" height="10" as="geometry" />
        </mxCell>
        <mxCell id="w5i4ymxL5U5C2uTVFl97-14" style="edgeStyle=orthogonalEdgeStyle;rounded=0;orthogonalLoop=1;jettySize=auto;html=1;exitX=0.5;exitY=1;exitDx=0;exitDy=0;entryX=0.874;entryY=-0.035;entryDx=0;entryDy=0;entryPerimeter=0;endArrow=open;endFill=0;" parent="w5i4ymxL5U5C2uTVFl97-4" source="w5i4ymxL5U5C2uTVFl97-15" target="w5i4ymxL5U5C2uTVFl97-13" edge="1">
          <mxGeometry relative="1" as="geometry" />
        </mxCell>
        <mxCell id="w5i4ymxL5U5C2uTVFl97-15" value="Review suggestions" style="rounded=1;whiteSpace=wrap;html=1;shadow=0;comic=0;labelBackgroundColor=none;strokeWidth=1;fontFamily=Verdana;fontSize=12;align=center;arcSize=50;" parent="w5i4ymxL5U5C2uTVFl97-4" vertex="1">
          <mxGeometry x="130" y="300.5" width="100" height="33" as="geometry" />
        </mxCell>
        <mxCell id="w5i4ymxL5U5C2uTVFl97-16" value="Submit assessment" style="rounded=1;whiteSpace=wrap;html=1;shadow=0;comic=0;labelBackgroundColor=none;strokeWidth=1;fontFamily=Verdana;fontSize=12;align=center;arcSize=50;" parent="w5i4ymxL5U5C2uTVFl97-4" vertex="1">
          <mxGeometry x="73.5" y="404" width="100" height="30" as="geometry" />
        </mxCell>
        <mxCell id="0k4l-ozv2ifvRbflU-HW-0" style="edgeStyle=orthogonalEdgeStyle;rounded=0;orthogonalLoop=1;jettySize=auto;html=1;exitX=1;exitY=0.5;exitDx=0;exitDy=0;entryX=0;entryY=0.5;entryDx=0;entryDy=0;endArrow=open;endFill=0;" edge="1" parent="w5i4ymxL5U5C2uTVFl97-4" source="w5i4ymxL5U5C2uTVFl97-18" target="w5i4ymxL5U5C2uTVFl97-5">
          <mxGeometry relative="1" as="geometry" />
        </mxCell>
        <mxCell id="w5i4ymxL5U5C2uTVFl97-18" value="" style="ellipse;whiteSpace=wrap;html=1;rounded=0;shadow=0;comic=0;labelBackgroundColor=none;strokeWidth=1;fillColor=#000000;fontFamily=Verdana;fontSize=12;align=center;" parent="w5i4ymxL5U5C2uTVFl97-4" vertex="1">
          <mxGeometry x="18" y="61" width="20" height="20" as="geometry" />
        </mxCell>
        <mxCell id="w5i4ymxL5U5C2uTVFl97-17" value="Artemis with Athena" style="swimlane;html=1;startSize=20;" parent="w5i4ymxL5U5C2uTVFl97-2" vertex="1">
          <mxGeometry x="250" width="250" height="660" as="geometry" />
        </mxCell>
        <mxCell id="w5i4ymxL5U5C2uTVFl97-25" value="Select submission to assess" style="rounded=1;whiteSpace=wrap;html=1;shadow=0;comic=0;labelBackgroundColor=none;strokeWidth=1;fontFamily=Verdana;fontSize=12;align=center;arcSize=50;" parent="w5i4ymxL5U5C2uTVFl97-17" vertex="1">
          <mxGeometry x="58" y="56" width="120" height="30" as="geometry" />
        </mxCell>
        <mxCell id="w5i4ymxL5U5C2uTVFl97-26" style="edgeStyle=orthogonalEdgeStyle;rounded=0;orthogonalLoop=1;jettySize=auto;html=1;exitX=0.5;exitY=1;exitDx=0;exitDy=0;entryX=1;entryY=0.5;entryDx=0;entryDy=0;endArrow=open;endFill=0;" parent="w5i4ymxL5U5C2uTVFl97-17" source="w5i4ymxL5U5C2uTVFl97-25" target="w5i4ymxL5U5C2uTVFl97-30" edge="1">
          <mxGeometry relative="1" as="geometry">
            <mxPoint x="74" y="259" as="sourcePoint" />
          </mxGeometry>
        </mxCell>
        <mxCell id="w5i4ymxL5U5C2uTVFl97-30" value="Submission" style="rounded=0;whiteSpace=wrap;html=1;shadow=0;comic=0;labelBackgroundColor=none;strokeWidth=1;fontFamily=Verdana;fontSize=12;align=center;arcSize=50;" parent="w5i4ymxL5U5C2uTVFl97-17" vertex="1">
          <mxGeometry x="-45" y="110" width="90" height="30" as="geometry" />
        </mxCell>
        <mxCell id="w5i4ymxL5U5C2uTVFl97-31" style="edgeStyle=orthogonalEdgeStyle;rounded=0;orthogonalLoop=1;jettySize=auto;html=1;exitX=1;exitY=0.5;exitDx=0;exitDy=0;entryX=0.5;entryY=0;entryDx=0;entryDy=0;endArrow=open;endFill=0;" parent="w5i4ymxL5U5C2uTVFl97-17" source="w5i4ymxL5U5C2uTVFl97-32" edge="1">
          <mxGeometry relative="1" as="geometry">
            <mxPoint x="122" y="450" as="targetPoint" />
          </mxGeometry>
        </mxCell>
        <mxCell id="w5i4ymxL5U5C2uTVFl97-32" value="Assessment" style="rounded=0;whiteSpace=wrap;html=1;shadow=0;comic=0;labelBackgroundColor=none;strokeWidth=1;fontFamily=Verdana;fontSize=12;align=center;arcSize=50;" parent="w5i4ymxL5U5C2uTVFl97-17" vertex="1">
          <mxGeometry x="-42.25" y="404" width="84.5" height="30" as="geometry" />
        </mxCell>
        <mxCell id="0k4l-ozv2ifvRbflU-HW-10" style="edgeStyle=orthogonalEdgeStyle;rounded=0;orthogonalLoop=1;jettySize=auto;html=1;exitX=0.5;exitY=1;exitDx=0;exitDy=0;entryX=0.5;entryY=0;entryDx=0;entryDy=0;endArrow=open;endFill=0;" edge="1" parent="w5i4ymxL5U5C2uTVFl97-17" source="w5i4ymxL5U5C2uTVFl97-34" target="w5i4ymxL5U5C2uTVFl97-43">
          <mxGeometry relative="1" as="geometry" />
        </mxCell>
        <mxCell id="w5i4ymxL5U5C2uTVFl97-34" value="Save assessment" style="rounded=1;whiteSpace=wrap;html=1;shadow=0;comic=0;labelBackgroundColor=none;strokeWidth=1;fontFamily=Verdana;fontSize=12;align=center;arcSize=50;" parent="w5i4ymxL5U5C2uTVFl97-17" vertex="1">
          <mxGeometry x="71" y="450" width="100" height="30" as="geometry" />
        </mxCell>
        <mxCell id="w5i4ymxL5U5C2uTVFl97-41" style="edgeStyle=orthogonalEdgeStyle;rounded=0;orthogonalLoop=1;jettySize=auto;html=1;exitX=0.5;exitY=1;exitDx=0;exitDy=0;entryX=0.5;entryY=0;entryDx=0;entryDy=0;" parent="w5i4ymxL5U5C2uTVFl97-17" source="w5i4ymxL5U5C2uTVFl97-43" target="w5i4ymxL5U5C2uTVFl97-44" edge="1">
          <mxGeometry relative="1" as="geometry" />
        </mxCell>
        <mxCell id="w5i4ymxL5U5C2uTVFl97-42" value="&lt;font style=&quot;font-size: 8px;&quot;&gt;[all submissions assessed]&lt;/font&gt;" style="edgeLabel;html=1;align=center;verticalAlign=middle;resizable=0;points=[];" parent="w5i4ymxL5U5C2uTVFl97-41" connectable="0" vertex="1">
          <mxGeometry x="-0.24" relative="1" as="geometry">
            <mxPoint as="offset" />
          </mxGeometry>
        </mxCell>
        <mxCell id="w5i4ymxL5U5C2uTVFl97-43" value="" style="rhombus;whiteSpace=wrap;html=1;" parent="w5i4ymxL5U5C2uTVFl97-17" vertex="1">
          <mxGeometry x="101" y="520" width="40" height="40" as="geometry" />
        </mxCell>
        <mxCell id="w5i4ymxL5U5C2uTVFl97-44" value="" style="shape=mxgraph.bpmn.shape;html=1;verticalLabelPosition=bottom;labelBackgroundColor=#ffffff;verticalAlign=top;perimeter=ellipsePerimeter;outline=end;symbol=terminate;rounded=0;shadow=0;comic=0;strokeWidth=1;fontFamily=Verdana;fontSize=12;align=center;" parent="w5i4ymxL5U5C2uTVFl97-17" vertex="1">
          <mxGeometry x="101" y="600" width="40" height="40" as="geometry" />
        </mxCell>
        <mxCell id="0k4l-ozv2ifvRbflU-HW-1" value="Suggestion" style="rounded=0;whiteSpace=wrap;html=1;shadow=0;comic=0;labelBackgroundColor=none;strokeWidth=1;fontFamily=Verdana;fontSize=12;align=center;arcSize=50;" vertex="1" parent="w5i4ymxL5U5C2uTVFl97-17">
          <mxGeometry x="-42.25" y="250" width="84.5" height="30" as="geometry" />
        </mxCell>
        <mxCell id="0k4l-ozv2ifvRbflU-HW-5" style="edgeStyle=orthogonalEdgeStyle;rounded=0;orthogonalLoop=1;jettySize=auto;html=1;exitX=0.5;exitY=1;exitDx=0;exitDy=0;entryX=1;entryY=0.5;entryDx=0;entryDy=0;endArrow=open;endFill=0;" edge="1" parent="w5i4ymxL5U5C2uTVFl97-17" source="0k4l-ozv2ifvRbflU-HW-3" target="0k4l-ozv2ifvRbflU-HW-1">
          <mxGeometry relative="1" as="geometry" />
        </mxCell>
        <mxCell id="0k4l-ozv2ifvRbflU-HW-3" value="Make suggestions" style="rounded=1;whiteSpace=wrap;html=1;shadow=0;comic=0;labelBackgroundColor=none;strokeWidth=1;fontFamily=Verdana;fontSize=12;align=center;arcSize=50;" vertex="1" parent="w5i4ymxL5U5C2uTVFl97-17">
          <mxGeometry x="58" y="200" width="120" height="30" as="geometry" />
        </mxCell>
        <mxCell id="0k4l-ozv2ifvRbflU-HW-6" value="Suggestion" style="rounded=0;whiteSpace=wrap;html=1;shadow=0;comic=0;labelBackgroundColor=none;strokeWidth=1;fontFamily=Verdana;fontSize=12;align=center;arcSize=50;" vertex="1" parent="w5i4ymxL5U5C2uTVFl97-17">
          <mxGeometry x="-44" y="252" width="84.5" height="30" as="geometry" />
        </mxCell>
        <mxCell id="w5i4ymxL5U5C2uTVFl97-52" style="edgeStyle=orthogonalEdgeStyle;rounded=0;orthogonalLoop=1;jettySize=auto;html=1;exitX=0;exitY=0.5;exitDx=0;exitDy=0;entryX=0.5;entryY=0;entryDx=0;entryDy=0;endArrow=open;endFill=0;" parent="w5i4ymxL5U5C2uTVFl97-2" source="w5i4ymxL5U5C2uTVFl97-30" target="w5i4ymxL5U5C2uTVFl97-8" edge="1">
          <mxGeometry relative="1" as="geometry" />
        </mxCell>
        <mxCell id="w5i4ymxL5U5C2uTVFl97-53" style="edgeStyle=orthogonalEdgeStyle;rounded=0;orthogonalLoop=1;jettySize=auto;html=1;exitX=1;exitY=0.5;exitDx=0;exitDy=0;entryX=0;entryY=0.5;entryDx=0;entryDy=0;endArrow=open;endFill=0;" parent="w5i4ymxL5U5C2uTVFl97-2" source="w5i4ymxL5U5C2uTVFl97-11" target="0k4l-ozv2ifvRbflU-HW-3" edge="1">
          <mxGeometry relative="1" as="geometry">
            <mxPoint x="552.5" y="349" as="targetPoint" />
          </mxGeometry>
        </mxCell>
        <mxCell id="w5i4ymxL5U5C2uTVFl97-55" style="edgeStyle=orthogonalEdgeStyle;rounded=0;orthogonalLoop=1;jettySize=auto;html=1;exitX=1;exitY=0.5;exitDx=0;exitDy=0;entryX=0;entryY=0.5;entryDx=0;entryDy=0;endArrow=open;endFill=0;" parent="w5i4ymxL5U5C2uTVFl97-2" source="w5i4ymxL5U5C2uTVFl97-16" target="w5i4ymxL5U5C2uTVFl97-32" edge="1">
          <mxGeometry relative="1" as="geometry" />
        </mxCell>
        <mxCell id="w5i4ymxL5U5C2uTVFl97-58" style="edgeStyle=orthogonalEdgeStyle;rounded=0;orthogonalLoop=1;jettySize=auto;html=1;exitX=0;exitY=0.5;exitDx=0;exitDy=0;entryX=0.25;entryY=0;entryDx=0;entryDy=0;endArrow=open;endFill=0;" parent="w5i4ymxL5U5C2uTVFl97-2" source="w5i4ymxL5U5C2uTVFl97-43" target="w5i4ymxL5U5C2uTVFl97-5" edge="1">
          <mxGeometry relative="1" as="geometry">
            <Array as="points">
              <mxPoint x="10" y="540" />
              <mxPoint x="10" y="36" />
              <mxPoint x="101" y="36" />
            </Array>
          </mxGeometry>
        </mxCell>
        <mxCell id="w5i4ymxL5U5C2uTVFl97-59" value="&lt;font style=&quot;font-size: 8px;&quot;&gt;[more submissions to assess]&lt;/font&gt;" style="edgeLabel;html=1;align=center;verticalAlign=middle;resizable=0;points=[];" parent="w5i4ymxL5U5C2uTVFl97-58" connectable="0" vertex="1">
          <mxGeometry x="-0.8692" y="1" relative="1" as="geometry">
            <mxPoint y="-1" as="offset" />
          </mxGeometry>
        </mxCell>
        <mxCell id="0k4l-ozv2ifvRbflU-HW-7" style="edgeStyle=orthogonalEdgeStyle;rounded=0;orthogonalLoop=1;jettySize=auto;html=1;exitX=0;exitY=0.5;exitDx=0;exitDy=0;entryX=0.5;entryY=0;entryDx=0;entryDy=0;endArrow=open;endFill=0;" edge="1" parent="w5i4ymxL5U5C2uTVFl97-2" source="0k4l-ozv2ifvRbflU-HW-6" target="w5i4ymxL5U5C2uTVFl97-15">
          <mxGeometry relative="1" as="geometry" />
        </mxCell>
      </root>
    </mxGraphModel>
  </diagram>
</mxfile>
